<svg id="Layer_1_Image" data-name="Layer 1 Image" xmlns="http://www.w3.org/2000/svg" viewBox="0 0 270 164.88"><defs><style>.cls-1{fill:#fefdfd;}.cls-2{fill:#ec1e26;}.cls-3{fill:#fff;}</style></defs><path class="cls-1" d="M153,22.16v0h0S153,22.17,153,22.16Zm-6,133.45a.17.17,0,0,0,0,.07l0,0Z"/><path class="cls-2" d="M168.8,104.49c0,.23,0,.47,0,.77h-6.08V83.08a14,14,0,0,0-.78-5.3A6.17,6.17,0,0,0,157.76,74,9.59,9.59,0,0,0,145.07,82a23.47,23.47,0,0,0-.22,3.46c0,6.54,0,13.09,0,19.73h-6.07a2.19,2.19,0,0,1-.11-1.18q0-10.41,0-20.84a18.82,18.82,0,0,0-.29-3.81,6.69,6.69,0,0,0-6.48-5.81c-6.17-.51-10.52,3.12-11,9.31-.27,3.27-.08,6.54-.1,9.82,0,4.14,0,8.29,0,12.56h-6.08V68.7h6v6.62c2.54-4.72,6.17-7.43,11.43-7.44s9.06,2.41,11.1,7.54l.77-1.11a14.26,14.26,0,0,1,16.74-5.66c4.71,1.64,7.06,5.24,7.86,10a19,19,0,0,1,.25,3.1C168.81,89.32,168.8,96.9,168.8,104.49Z"/><path class="cls-2" d="M217.75,75.23c-6.82-9.83-22.36-10-28.1.7,0,0-.12.06-.24.13v-7.4h-5.92V124h6V98.23l.21-.06c.37.56.71,1.13,1.11,1.67,5,6.88,15.34,8.31,22.64,3.14C221.86,97,223.85,84,217.75,75.23Zm-7.85,23c-4,3-8.46,3.25-13,1.42s-6.78-5.52-7.5-10.21a15.1,15.1,0,0,1,1.32-9.21,12.62,12.62,0,0,1,13.17-6.75,12.07,12.07,0,0,1,10.66,10.14,17,17,0,0,1,.31,3.34C214.82,91.38,213.62,95.4,209.9,98.19Z"/><polygon class="cls-3" points="39.48 118.52 39.48 124.27 20.78 124.27 20.78 41.78 39.46 41.78 39.46 47.47 27.65 47.47 27.65 118.52 39.48 118.52"/><polygon class="cls-3" points="249.55 41.76 249.55 124.33 230.78 124.33 230.78 118.51 242.63 118.51 242.63 47.53 230.76 47.53 230.76 41.76 249.55 41.76"/><path class="cls-2" d="M81,99.47c-4,5.68-13,8.13-20.67,5.71a19.2,19.2,0,0,1-.14-36.35c7.56-2.48,16.26-.11,20.46,5.63-1.42,1.18-2.86,2.36-4.36,3.59a11.77,11.77,0,0,0-7.81-4.54c-7.66-1.13-13.88,3.63-14.72,11.34a16,16,0,0,0,1.67,9.64c3.91,7.08,14.22,8.4,20.25,2.59.37-.35.7-.75,1.13-1.2Z"/><rect class="cls-2" x="93.19" y="41.72" width="6.02" height="63.69"/><path class="cls-2" d="M147,155.61a.17.17,0,0,0,0,.07l0,0Z"/><path class="cls-1" d="M147,155.65l0,0-.1,0s0-.05-.07-.08l.15-.06,0,0Z"/></svg>