<svg xmlns="http://www.w3.org/2000/svg" xmlns:xlink="http://www.w3.org/1999/xlink" viewBox="0 0 776.5 430"><defs><style>.a{fill:url(#a)}.b,.i{fill:#eacc1c}.c{fill:url(#b)}.d{fill:#ff2641}.e{fill:url(#c)}.f{fill:url(#d)}.g,.h{fill:none}.g{stroke:#fff;stroke-linecap:round;stroke-linejoin:round;stroke-width:5px}.h{stroke:#eacc1c;stroke-miterlimit:10;stroke-width:12px}.i{font-size:59.9px;font-family:Roboto-Regular,Roboto}.j{letter-spacing:.01em}.k{letter-spacing:-.01em}</style><linearGradient id="a" x1="372.68" y1="199.67" x2="372.68" y2="43.96" gradientUnits="userSpaceOnUse"><stop offset="0" stop-color="#c43a30"/><stop offset="1" stop-color="#874da2"/></linearGradient><linearGradient id="b" x1="368.6" y1="199.67" x2="368.6" y2="43.96" xlink:href="#a"/><linearGradient id="c" x1="199.41" y1="205" x2="199.41" y2="49.14" xlink:href="#a"/><linearGradient id="d" x1="195.43" y1="205" x2="195.43" y2="49.14" xlink:href="#a"/></defs><title>eMergeLogo</title><path class="a" d="M400 1.5c30.56 67.71 40.51 121.82 37.86 165a191.39 191.39 0 0 1-4.95 33.5l-3.91-9.5-3.89 2.59L379.22 82l-72.13 53.6q.92-5 2.15-10.14C319.47 83.45 346.59 38.85 400 1.5z"/><path class="b" d="M429 190.5l3.91 9.5-1.08 3.4-2.83-.9-3.89-9.41 3.89-2.59z"/><path class="c" d="M304.49 158.26a171.84 171.84 0 0 1 2.6-22.66L379.22 82l45.89 111.09-5.11 3.41 8 19 3.83-12.1 1.08-3.4a166.27 166.27 0 0 1-12 33.55 162.44 162.44 0 0 1-33.89 46.39c-16.55-4-31.29-9.48-42.06-16.44-19.4-12.53-35.86-42.54-39.8-80a165.27 165.27 0 0 1-.71-25.23z"/><path class="b" d="M431.83 203.4L428 215.5l-8-19 5.11-3.41 3.89 9.41 2.83.9zM468 374.5c-3.58 33.38-71.46 43.67-119.37-10.24C393.89 302.81 464 322.9 468 374.5z"/><path class="d" d="M387.06 279.94l-.06.06c-21.61 20.74-45.91 33.57-65.21 41.24-16.32-37.81-24.77-90.83-17.3-163a165.27 165.27 0 0 0 .71 25.23c3.94 37.45 20.4 67.46 39.8 80 10.77 6.99 25.51 12.53 42.06 16.47z"/><path class="b" d="M283 51.5c38.72 31.25 24.83 48.19 11.95 55.84a22 22 0 0 1-23.52-.59C259.29 98.58 246.57 81.18 283 51.5zM289.04 149.01l3.46 3.99-9 8-4.5-3.5-4-4 4.09-2.97 3.91 2.97 6.04-4.49z"/><path class="b" d="M286 145.5l3.04 3.51-6.04 4.49-3.91-2.97 6.91-5.03z"/><path class="d" d="M263.51 158.28c7.47 72.13-1 125.15-17.3 163-19.3-7.67-43.6-20.5-65.21-41.24l-.06-.06c16.55-4 31.29-9.48 42.06-16.44 19.4-12.53 35.86-42.54 39.8-80a165.27 165.27 0 0 0 .71-25.26z"/><path class="e" d="M263.51 158.26a165.27 165.27 0 0 1-.71 25.23C258.86 221 242.4 251 223 263.5c-10.77 7-25.51 12.45-42.06 16.44A161.65 161.65 0 0 1 143.63 226a167.75 167.75 0 0 1-8.51-25.91L141 216.5l8-20-5-3.5 44.78-111 72.36 54.91a170 170 0 0 1 2.37 21.35z"/><path class="f" d="M261.14 136.91L188.78 82 144 193l-5-3.51-3.9 10.51a180.52 180.52 0 0 1-3.56-19C125.47 135.62 133.91 77 168 1.5c53.41 37.35 80.53 82 90.76 124q1.39 5.72 2.38 11.41z"/><path class="b" d="M100 374.5c4-51.6 74.11-71.69 119.37-10.24-47.91 53.91-115.79 43.62-119.37 10.24zM144 193l5 3.49-8 20-5.88-16.4a.1.1 0 0 1 0-.09l3.9-10.5z"/><path class="g" d="M263.51 158.28a165.27 165.27 0 0 1-.71 25.23C258.86 221 242.4 251 223 263.5c-10.77 7-25.51 12.45-42.06 16.44l-.22.05"/><path class="g" d="M131.54 181C125.47 135.62 133.91 77 168 1.5c53.41 37.35 80.53 82 90.76 124q1.39 5.76 2.38 11.45a170 170 0 0 1 2.37 21.35M246.21 321.24c-19.3-7.67-43.6-20.5-65.21-41.24l-.06-.06A161.65 161.65 0 0 1 143.63 226M392.28 280.56l-.77-.08-.59-.06-.64-.07-.51-.06-.65-.07h-.36l-.71-.08h-.34l-.4-.05M387 280h.71M435.28 276.67a176.57 176.57 0 0 1-47.67 3.39h-.3M435.28 276.67C432.5 255.33 451.75 218 484 215.5c11.19 38.91-18.52 54.81-48.72 61.17z"/><path class="g" d="M510 224.5c22 68-55 78-70 63-2.6-2.6-4.14-6.36-4.72-10.83M530.78 270.4c-.92-13.54-4.87-36.91-20.78-45.9M530.78 270.41a97.47 97.47 0 0 1 .22 10.09 72.48 72.48 0 0 1-.22-10.09zM530.78 270.41v-.01M618 210.5c-76.22-13.36-86.37 37.5-87.22 59.9M283 51.5c-36.43 29.68-23.71 47.08-11.57 55.25a22 22 0 0 0 23.52.59c12.88-7.65 26.77-24.59-11.95-55.84zM533 363.5c5 55 148 118 99-117-1 40 2 30-34 39s-65-42 25-51M219.37 364.26c11.75 15.95 21.83 37.41 28.63 65.24M219.37 364.26C171.46 418.17 103.58 407.88 100 374.5c4-51.6 74.11-71.69 119.37-10.24z"/><path class="g" d="M263 153.5c.18 1.6.35 3.18.51 4.76 7.47 72.13-1 125.15-17.3 163-7.53 17.45-16.74 31.67-26.84 43"/><path class="h" d="M141 200.5l3.02-7.49L188.78 82l72.36 54.91 17.95 13.62 3.91 2.97"/><path class="g" d="M421 233.55a162.44 162.44 0 0 1-33.89 46.39l-.11.06c-21.61 20.74-45.91 33.57-65.21 41.24M304.49 158.26a171.84 171.84 0 0 1 2.6-22.66q.92-5 2.15-10.14c10.23-42 37.35-86.61 90.76-124 30.56 67.71 40.51 121.82 37.86 165"/><path class="g" d="M387.28 280l-.22-.05c-16.55-4-31.29-9.48-42.06-16.44-19.4-12.53-35.86-42.54-39.8-80a165.27 165.27 0 0 1-.71-25.23M348.63 364.26c-11.75 15.95-21.83 37.41-28.63 65.24M348.63 364.26c47.91 53.91 115.79 43.62 119.37 10.24-4-51.6-74.11-71.69-119.37-10.24z"/><path class="g" d="M305 153.5c-.18 1.6-.35 3.18-.51 4.76-7.47 72.13 1 125.15 17.3 163 7.53 17.45 16.74 31.67 26.84 43"/><path class="h" d="M283 153.5l6.04-4.49 18.05-13.41L379.22 82l45.89 111.09 3.89 9.41"/><path class="g" d="M661 275.79l-1 .21c-3.39.64-11.7-1.11-11-1M661 275.79c-2.64-21.37 15.87-57.82 48-60.29 11.07 38.5-18.16 53.81-48 60.29zM749 268s-61 41.5-83 18a16.93 16.93 0 0 1-5-10 1.49 1.49 0 0 1 0-.21M135.12 200.09a.1.1 0 0 1 0-.09 180.52 180.52 0 0 1-3.56-19M143.63 226a167.75 167.75 0 0 1-8.51-25.91M437.86 166.49a191.39 191.39 0 0 1-4.95 33.51 166.27 166.27 0 0 1-12 33.55M38.68 262.59a216.49 216.49 0 0 1-25.23 5.2M38.68 262.59c-4.87-25.76 15.94-72.51 55-77.77 16.32 46.53-18.68 67.93-55 77.77zM179.46 281.13c-73.65 13.58-118.38 4-131.29-5.71-3.58-2.68-8.47-7.44-9.49-12.83"/><text class="i" transform="matrix(.94 0 0 1 450.5 187.77)"><tspan class="j">M</tspan><tspan class="k" x="52.83" y="0">A</tspan><tspan x="91.58" y="0">GAZINE</tspan></text></svg>